<?xml version="1.0" standalone="no"?>
<!DOCTYPE svg PUBLIC "-//W3C//DTD SVG 20010904//EN"
 "http://www.w3.org/TR/2001/REC-SVG-20010904/DTD/svg10.dtd">
<svg version="1.0" xmlns="http://www.w3.org/2000/svg"
 width="447.000000pt" height="447.000000pt" viewBox="0 0 447.000000 447.000000"
 preserveAspectRatio="xMidYMid meet">
<metadata>
Created by potrace 1.14, written by Peter Selinger 2001-2017
</metadata>
<g transform="translate(0.000000,447.000000) scale(0.100000,-0.100000)"
fill="#000000" stroke="none">
<path d="M325 3133 c-18 -63 -63 -190 -174 -488 -145 -389 -181 -579 -126
-672 41 -70 140 -97 215 -58 46 24 125 99 177 169 35 47 44 55 49 40 31 -102
121 -204 197 -226 120 -33 251 15 381 140 32 31 56 51 52 44 -12 -20 44 -109
86 -138 21 -15 60 -33 86 -39 97 -26 158 0 229 96 l37 48 12 -37 c16 -45 87
-111 123 -114 54 -3 87 4 127 28 43 24 154 130 154 145 0 22 19 6 25 -20 20
-93 179 -179 279 -150 37 11 97 68 138 132 17 26 32 46 33 45 2 -2 5 -16 8
-33 11 -68 41 -108 102 -137 62 -30 145 -3 223 71 17 17 32 28 32 23 0 -4 -9
-41 -21 -82 -32 -117 -50 -219 -50 -288 0 -106 53 -191 133 -213 136 -36 291
90 355 290 18 58 28 253 15 307 -9 41 -9 42 34 78 40 34 61 46 50 28 -7 -12
12 -100 30 -138 21 -45 82 -86 126 -86 52 0 107 28 152 76 35 38 145 211 216
341 45 81 43 76 -48 -202 l-66 -202 -60 -22 c-292 -105 -444 -238 -451 -393
-6 -128 90 -217 220 -203 64 6 132 41 203 103 84 73 208 272 290 464 16 37 34
56 91 94 94 64 172 142 228 227 50 78 63 128 40 148 -24 19 -51 -4 -102 -85
-43 -68 -156 -194 -174 -194 -5 0 7 46 26 103 39 117 109 380 119 453 11 79
11 98 2 116 -9 19 -71 58 -131 83 l-37 15 -34 -72 c-48 -105 -131 -275 -163
-333 -113 -209 -141 -258 -178 -315 -72 -111 -95 -115 -89 -18 5 87 34 203 81
335 25 71 58 164 74 208 24 68 26 83 16 100 -16 24 -158 99 -168 88 -10 -11
-169 -439 -169 -455 0 -31 -136 -208 -160 -208 -3 0 -18 27 -34 60 -31 63 -29
75 16 121 70 71 217 316 252 421 42 128 38 225 -15 309 -34 54 -83 90 -153
114 -50 16 -65 11 -66 -22 0 -18 -87 -270 -200 -577 -119 -326 -181 -439 -283
-524 -125 -103 -97 35 145 713 49 137 91 266 94 286 6 32 2 39 -32 68 -22 17
-61 40 -89 50 l-50 19 -41 -127 c-23 -69 -56 -164 -74 -211 -17 -47 -34 -93
-37 -103 -5 -15 -11 -13 -43 17 -49 44 -99 60 -170 53 -72 -6 -111 -27 -174
-91 -83 -85 -183 -258 -226 -390 -16 -49 -59 -124 -112 -195 -63 -83 -107
-121 -141 -121 -16 0 -18 6 -14 49 5 45 79 283 112 356 7 17 23 60 35 96 18
56 20 70 9 90 -17 33 -47 55 -106 81 -29 12 -53 25 -53 28 0 18 -63 69 -104
85 -61 23 -141 16 -201 -19 -94 -56 -202 -211 -280 -406 -89 -221 -248 -380
-382 -380 -94 0 -134 51 -129 166 2 38 9 86 15 107 10 32 16 37 44 38 98 2
176 27 252 79 91 63 138 146 139 251 1 55 -3 72 -26 106 -62 93 -186 97 -323
8 -136 -88 -233 -226 -275 -389 -37 -146 -188 -346 -260 -346 -17 0 -11 59 14
160 23 87 62 203 238 707 l63 181 -21 29 c-17 23 -132 92 -156 93 -4 0 -14
-26 -23 -57z m3043 -225 c-1 -65 -27 -158 -68 -238 -25 -49 -100 -172 -110
-180 -4 -3 -12 -14 -18 -25 -27 -48 -9 22 47 182 60 171 131 334 142 327 4 -2
7 -32 7 -66z m-2388 -304 c0 -96 -90 -184 -218 -212 -23 -6 -44 -6 -47 -1 -7
10 26 78 68 138 43 62 91 109 129 125 29 13 35 12 51 -1 9 -9 17 -30 17 -49z
m664 40 c16 -16 17 -20 20 -76 5 -114 -216 -541 -302 -584 -60 -29 -84 22 -64
136 36 209 175 472 277 524 38 20 50 20 69 0z m883 -9 c19 -26 12 -107 -18
-195 -53 -155 -233 -455 -278 -461 -3 0 -14 -2 -23 -4 -82 -16 -42 230 74 458
94 185 195 268 245 202z m570 -486 c15 -39 10 -49 -24 -49 -20 0 -24 3 -18 18
4 9 10 27 12 40 7 30 16 28 30 -9z m45 -151 c14 -209 -15 -334 -98 -415 -44
-42 -80 -52 -104 -27 -39 39 -32 98 35 311 l45 142 43 4 c23 2 50 4 60 5 11 1
18 -6 19 -20z m469 -323 c-32 -63 -72 -125 -101 -156 -43 -46 -52 -51 -77 -44
-34 8 -43 21 -43 59 0 45 38 113 85 153 41 34 175 105 184 97 3 -3 -19 -51
-48 -109z"/>
<path d="M4310 2820 c-94 -49 -70 -176 36 -193 62 -10 124 42 124 103 0 78
-88 127 -160 90z m107 -27 c62 -55 10 -161 -72 -145 -31 5 -62 40 -69 75 -7
42 35 87 83 87 22 0 46 -7 58 -17z"/>
<path d="M4318 2771 c-6 -29 4 -101 13 -95 5 3 9 14 9 25 0 30 36 24 44 -7 10
-37 20 -21 21 32 0 39 -3 48 -21 55 -32 12 -63 7 -66 -10z m62 -16 c11 -13 8
-15 -14 -15 -16 0 -26 5 -26 15 0 8 6 15 14 15 7 0 19 -7 26 -15z"/>
</g>
</svg>
